<svg width="100%" height="100%" viewBox="0 0 800 600" xmlns="http://www.w3.org/2000/svg">
<rect x="0" y="0" width="800" height="600" fill="#bfe3f7"/>
<circle cx="700" cy="80" r="34" fill="#ffd93d" stroke="#e0a800" stroke-width="3"/>
<g stroke="#e0a800" stroke-width="3" stroke-linecap="round">
<line x1="700" y1="26" x2="700" y2="12"/>
<line x1="700" y1="134" x2="700" y2="148"/>
<line x1="754" y1="80" x2="768" y2="80"/>
<line x1="646" y1="80" x2="632" y2="80"/>
</g>
<path d="M60 41 l3 9 l9 1 l-7 6 l3 9 l-8 -5 l-8 5 l3 -9 l-7 -6 l9 -1 z" fill="#fff5c2" stroke="#e0a800" stroke-width="1"/>
<path d="M140 111 l3 9 l9 1 l-7 6 l3 9 l-8 -5 l-8 5 l3 -9 l-7 -6 l9 -1 z" fill="#fff5c2" stroke="#e0a800" stroke-width="1"/>
<path d="M230 36 l3 9 l9 1 l-7 6 l3 9 l-8 -5 l-8 5 l3 -9 l-7 -6 l9 -1 z" fill="#fff5c2" stroke="#e0a800" stroke-width="1"/>
<path d="M40 131 l3 9 l9 1 l-7 6 l3 9 l-8 -5 l-8 5 l3 -9 l-7 -6 l9 -1 z" fill="#fff5c2" stroke="#e0a800" stroke-width="1"/>
<path d="M120 211 l3 9 l9 1 l-7 6 l3 9 l-8 -5 l-8 5 l3 -9 l-7 -6 l9 -1 z" fill="#fff5c2" stroke="#e0a800" stroke-width="1"/>
<path d="M150 480 Q210 450 400 455 Q590 450 650 480 Q590 520 400 518 Q210 520 150 480 Z" fill="#9be8a8" stroke="#3d9950" stroke-width="4" stroke-linejoin="round"/>
<g transform="translate(520,320)">
<rect x="-70" y="0" width="140" height="90" fill="#caa06a" stroke="#7a5a2e" stroke-width="4"/>
<path d="M-80 0 L0 -55 L80 0 Z" fill="#8a4a2e" stroke="#5a2e18" stroke-width="4" stroke-linejoin="round"/>
<rect x="-14" y="45" width="28" height="45" fill="#5a3a20" stroke="#3a2410" stroke-width="2"/>
<rect x="-52" y="20" width="20" height="20" fill="#bfe3f7" stroke="#5a2e18" stroke-width="2"/>
<rect x="32" y="20" width="20" height="20" fill="#bfe3f7" stroke="#5a2e18" stroke-width="2"/>
<text x="0" y="-62" font-size="14" font-family="sans-serif" fill="#3a2410" text-anchor="middle" font-weight="bold">EXEGETE</text>
</g><g transform="translate(380,430) scale(1.3)">
<circle cx="0" cy="0" r="9" fill="#f0cf9e" stroke="#8a5a2a" stroke-width="2"/>
<path d="M-9 0 q9 -12 18 0" fill="none" stroke="#a05a2a" stroke-width="1.5"/>
<circle cx="0" cy="-15" r="4" fill="none" stroke="#ffd166" stroke-width="1.5"/>
<path d="M-8 8 Q0 22 8 8 L6 26 L-6 26 Z" fill="#f2f2f2" stroke="#ccc" stroke-width="1.5"/>
</g><g transform="translate(240,420) scale(0.85)">
<path d="M-8 96 L-18 158" stroke="#f2c48a" stroke-width="8" stroke-linecap="round"/>
<path d="M8 96 L18 158" stroke="#f2c48a" stroke-width="8" stroke-linecap="round"/>
<path d="M-24 70 L24 70 L20 100 L4 100 L0 80 L-4 100 L-20 100 Z" fill="#4a90d9" stroke="#2a5f96" stroke-width="4" stroke-linejoin="round"/>
<path d="M-26 12 Q-30 15 -30 22 L-14 35 L-14 70 L14 70 L14 35 L30 22 Q30 15 26 12 L14 8 Q0 16 -14 8 Z" fill="#5aa3e0" stroke="#2a5f96" stroke-width="4" stroke-linejoin="round"/>
<path d="M-14 25 L-50 50" stroke="#f2c48a" stroke-width="6" stroke-linecap="round"/>
<path d="M14 25 L46 18" stroke="#f2c48a" stroke-width="6" stroke-linecap="round"/>
<circle cx="0" cy="-14" r="29" fill="#f9d9ab" stroke="#c9950a" stroke-width="4"/>
<path d="M-27 -22 q5 -23 27 -23 q22 0 27 23 q-13 -10 -27 -4 q-14 -6 -27 4 Z" fill="#ffd166" stroke="#d99a1f" stroke-width="3" stroke-linejoin="round"/>
<path d="M-25 -30 q-6 -6 -2 -13" stroke="#d99a1f" stroke-width="3" fill="none" stroke-linecap="round"/>
<path d="M25 -30 q6 -6 2 -13" stroke="#d99a1f" stroke-width="3" fill="none" stroke-linecap="round"/>
<circle cx="-11" cy="-14" r="4.5" fill="#4caf50" stroke="#2e7d32" stroke-width="1"/>
<circle cx="11" cy="-14" r="4.5" fill="#4caf50" stroke="#2e7d32" stroke-width="1"/>
<circle cx="-11" cy="-14" r="1.8" fill="#111"/>
<circle cx="11" cy="-14" r="1.8" fill="#111"/>
<circle cx="-18" cy="-3" r="5.5" fill="#ff9a9a" opacity="0.6"/>
<circle cx="18" cy="-3" r="5.5" fill="#ff9a9a" opacity="0.6"/>
<path d="M-11 4 Q0 15 11 4" stroke="#a5540f" stroke-width="3" fill="none" stroke-linecap="round"/>
</g><g transform="translate(170,420) scale(0.85)">
<path d="M-28 100 L28 100 L13 10 L-13 10 Z" fill="#ff8fb1" stroke="#c94f75" stroke-width="4" stroke-linejoin="round"/>
<path d="M-13 32 L-48 14" stroke="#e6b98a" stroke-width="6" stroke-linecap="round"/>
<path d="M13 32 L46 50" stroke="#e6b98a" stroke-width="6" stroke-linecap="round"/>
<path d="M-8 100 L-17 150" stroke="#c94f75" stroke-width="6" stroke-linecap="round"/>
<path d="M8 100 L17 150" stroke="#c94f75" stroke-width="6" stroke-linecap="round"/>
<circle cx="0" cy="-12" r="27" fill="#eec89a" stroke="#c94f75" stroke-width="4"/>
<g fill="#6b4327" stroke="#4a2c17" stroke-width="2.4">
<circle cx="-22" cy="-25" r="8"/>
<circle cx="-28" cy="-11" r="8"/>
<circle cx="-28" cy="4" r="7"/>
<circle cx="-20" cy="16" r="6"/>
<circle cx="22" cy="-25" r="8"/>
<circle cx="28" cy="-11" r="8"/>
<circle cx="28" cy="4" r="7"/>
<circle cx="20" cy="16" r="6"/>
<path d="M-18 -34 q18 -12 36 0" stroke="#4a2c17" stroke-width="2.6" fill="#6b4327"/>
</g>
<circle cx="-9" cy="-12" r="4.2" fill="#000"/>
<circle cx="9" cy="-12" r="4.2" fill="#000"/>
<circle cx="-16" cy="-2" r="5.5" fill="#ff9a9a" opacity="0.6"/>
<circle cx="16" cy="-2" r="5.5" fill="#ff9a9a" opacity="0.6"/>
<path d="M-9 6 Q0 15 9 6" stroke="#a5540f" stroke-width="2.6" fill="none" stroke-linecap="round"/>
</g><g>
<path d="M111.0 265.6 Q93.0 265.6 93.0 283.6 L93.0 312.0 Q93.0 330.0 111.0 330.0 L229.0 330.0 Q247.0 330.0 247.0 312.0 L247.0 283.6 Q247.0 265.6 229.0 265.6 Z" fill="#fffaf0" stroke="#2b2320" stroke-width="2.5"/>
<path d="M182.0 326.0 L210 330 L192.0 316.0 Z" fill="#fffaf0" stroke="#2b2320" stroke-width="2.5" stroke-linejoin="round"/>
<text x="170" y="292.6" font-size="15" font-family="'Comic Sans MS','Baloo 2',cursive,sans-serif" fill="#2b2320" text-anchor="middle" font-weight="bold"><tspan x="170" dy="0">Mais c'est bébé</tspan><tspan x="170" dy="21">Jésus !</tspan></text>
</g><g>
<path d="M228.39999999999998 214.6 Q210.39999999999998 214.6 210.39999999999998 232.6 L210.39999999999998 282.0 Q210.39999999999998 300.0 228.39999999999998 300.0 L371.6 300.0 Q389.6 300.0 389.6 282.0 L389.6 232.6 Q389.6 214.6 371.6 214.6 Z" fill="#fffaf0" stroke="#2b2320" stroke-width="2.5"/>
<path d="M291.0 296.0 L270 300 L283.5 286.0 Z" fill="#fffaf0" stroke="#2b2320" stroke-width="2.5" stroke-linejoin="round"/>
<text x="300" y="241.6" font-size="15" font-family="'Comic Sans MS','Baloo 2',cursive,sans-serif" fill="#2b2320" text-anchor="middle" font-weight="bold"><tspan x="300" dy="0">Mignon, mais la</tspan><tspan x="300" dy="21">religion c'est pas</tspan><tspan x="300" dy="21">notre truc.</tspan></text>
</g>
</svg>