<svg width="100%" height="100%" viewBox="0 0 800 600" xmlns="http://www.w3.org/2000/svg">
<rect x="0" y="0" width="800" height="600" fill="#1b2350"/>
<path d="M60 41 l3 9 l9 1 l-7 6 l3 9 l-8 -5 l-8 5 l3 -9 l-7 -6 l9 -1 z" fill="#fff5c2" stroke="#e0a800" stroke-width="1"/>
<path d="M140 111 l3 9 l9 1 l-7 6 l3 9 l-8 -5 l-8 5 l3 -9 l-7 -6 l9 -1 z" fill="#fff5c2" stroke="#e0a800" stroke-width="1"/>
<path d="M230 36 l3 9 l9 1 l-7 6 l3 9 l-8 -5 l-8 5 l3 -9 l-7 -6 l9 -1 z" fill="#fff5c2" stroke="#e0a800" stroke-width="1"/>
<path d="M40 131 l3 9 l9 1 l-7 6 l3 9 l-8 -5 l-8 5 l3 -9 l-7 -6 l9 -1 z" fill="#fff5c2" stroke="#e0a800" stroke-width="1"/>
<path d="M120 211 l3 9 l9 1 l-7 6 l3 9 l-8 -5 l-8 5 l3 -9 l-7 -6 l9 -1 z" fill="#fff5c2" stroke="#e0a800" stroke-width="1"/>
<path d="M100 480 Q400 440 700 480" stroke="#ffe08a" stroke-width="2" fill="none" stroke-dasharray="4 10" opacity="0.6"/><g transform="translate(320,380) scale(0.85)">
<path d="M-8 96 L-18 158" stroke="#f2c48a" stroke-width="8" stroke-linecap="round"/>
<path d="M8 96 L18 158" stroke="#f2c48a" stroke-width="8" stroke-linecap="round"/>
<path d="M-24 70 L24 70 L20 100 L4 100 L0 80 L-4 100 L-20 100 Z" fill="#4a90d9" stroke="#2a5f96" stroke-width="4" stroke-linejoin="round"/>
<path d="M-26 12 Q-30 15 -30 22 L-14 35 L-14 70 L14 70 L14 35 L30 22 Q30 15 26 12 L14 8 Q0 16 -14 8 Z" fill="#5aa3e0" stroke="#2a5f96" stroke-width="4" stroke-linejoin="round"/>
<path d="M-14 25 L-50 50" stroke="#f2c48a" stroke-width="6" stroke-linecap="round"/>
<path d="M14 25 L46 18" stroke="#f2c48a" stroke-width="6" stroke-linecap="round"/>
<circle cx="0" cy="-14" r="29" fill="#f9d9ab" stroke="#c9950a" stroke-width="4"/>
<path d="M-27 -22 q5 -23 27 -23 q22 0 27 23 q-13 -10 -27 -4 q-14 -6 -27 4 Z" fill="#ffd166" stroke="#d99a1f" stroke-width="3" stroke-linejoin="round"/>
<path d="M-25 -30 q-6 -6 -2 -13" stroke="#d99a1f" stroke-width="3" fill="none" stroke-linecap="round"/>
<path d="M25 -30 q6 -6 2 -13" stroke="#d99a1f" stroke-width="3" fill="none" stroke-linecap="round"/>
<circle cx="-11" cy="-14" r="4.5" fill="#4caf50" stroke="#2e7d32" stroke-width="1"/>
<circle cx="11" cy="-14" r="4.5" fill="#4caf50" stroke="#2e7d32" stroke-width="1"/>
<circle cx="-11" cy="-14" r="1.8" fill="#111"/>
<circle cx="11" cy="-14" r="1.8" fill="#111"/>
<circle cx="-18" cy="-3" r="5.5" fill="#ff9a9a" opacity="0.6"/>
<circle cx="18" cy="-3" r="5.5" fill="#ff9a9a" opacity="0.6"/>
<path d="M-11 4 Q0 15 11 4" stroke="#a5540f" stroke-width="3" fill="none" stroke-linecap="round"/>
</g><g transform="translate(390,380) scale(0.85)">
<path d="M-28 100 L28 100 L13 10 L-13 10 Z" fill="#ff8fb1" stroke="#c94f75" stroke-width="4" stroke-linejoin="round"/>
<path d="M-13 32 L-48 14" stroke="#e6b98a" stroke-width="6" stroke-linecap="round"/>
<path d="M13 32 L46 50" stroke="#e6b98a" stroke-width="6" stroke-linecap="round"/>
<path d="M-8 100 L-17 150" stroke="#c94f75" stroke-width="6" stroke-linecap="round"/>
<path d="M8 100 L17 150" stroke="#c94f75" stroke-width="6" stroke-linecap="round"/>
<circle cx="0" cy="-12" r="27" fill="#eec89a" stroke="#c94f75" stroke-width="4"/>
<g fill="#6b4327" stroke="#4a2c17" stroke-width="2.4">
<circle cx="-22" cy="-25" r="8"/>
<circle cx="-28" cy="-11" r="8"/>
<circle cx="-28" cy="4" r="7"/>
<circle cx="-20" cy="16" r="6"/>
<circle cx="22" cy="-25" r="8"/>
<circle cx="28" cy="-11" r="8"/>
<circle cx="28" cy="4" r="7"/>
<circle cx="20" cy="16" r="6"/>
<path d="M-18 -34 q18 -12 36 0" stroke="#4a2c17" stroke-width="2.6" fill="#6b4327"/>
</g>
<circle cx="-9" cy="-12" r="4.2" fill="#000"/>
<circle cx="9" cy="-12" r="4.2" fill="#000"/>
<circle cx="-16" cy="-2" r="5.5" fill="#ff9a9a" opacity="0.6"/>
<circle cx="16" cy="-2" r="5.5" fill="#ff9a9a" opacity="0.6"/>
<path d="M-9 6 Q0 15 9 6" stroke="#a5540f" stroke-width="2.6" fill="none" stroke-linecap="round"/>
</g><g transform="translate(460,410) scale(0.65)">
<path d="M-40 70 L40 70 L34 0 L-34 0 Z" fill="#8a8f9c" stroke="#4a4e58" stroke-width="4" stroke-linejoin="round"/>
<circle cx="0" cy="-24" r="30" fill="#8a8f9c" stroke="#4a4e58" stroke-width="4"/>
<path d="M-26 -40 L-14 -58 L-6 -36 Z" fill="#8a8f9c" stroke="#4a4e58" stroke-width="3" stroke-linejoin="round"/>
<path d="M26 -40 L14 -58 L6 -36 Z" fill="#8a8f9c" stroke="#4a4e58" stroke-width="3" stroke-linejoin="round"/>
<circle cx="-10" cy="-26" r="4" fill="#ff3b3b"/>
<circle cx="10" cy="-26" r="4" fill="#ff3b3b"/>
<path d="M-8 -8 L0 -2 L8 -8" stroke="#2a2d33" stroke-width="2" fill="none"/>
<path d="M-4 -4 L-8 4 M4 -4 L8 4" stroke="#fff" stroke-width="2"/>
<path d="M-20 40 Q-45 20 -35 -10" stroke="#8a8f9c" stroke-width="10" fill="none" stroke-linecap="round"/>
</g>
</svg>