<svg width="100%" height="100%" viewBox="0 0 800 600" xmlns="http://www.w3.org/2000/svg">
<rect x="0" y="0" width="800" height="600" fill="#bfe3f7"/>
<circle cx="700" cy="80" r="34" fill="#ffd93d" stroke="#e0a800" stroke-width="3"/>
<g stroke="#e0a800" stroke-width="3" stroke-linecap="round">
<line x1="700" y1="26" x2="700" y2="12"/>
<line x1="700" y1="134" x2="700" y2="148"/>
<line x1="754" y1="80" x2="768" y2="80"/>
<line x1="646" y1="80" x2="632" y2="80"/>
</g>
<path d="M60 41 l3 9 l9 1 l-7 6 l3 9 l-8 -5 l-8 5 l3 -9 l-7 -6 l9 -1 z" fill="#fff5c2" stroke="#e0a800" stroke-width="1"/>
<path d="M140 111 l3 9 l9 1 l-7 6 l3 9 l-8 -5 l-8 5 l3 -9 l-7 -6 l9 -1 z" fill="#fff5c2" stroke="#e0a800" stroke-width="1"/>
<path d="M230 36 l3 9 l9 1 l-7 6 l3 9 l-8 -5 l-8 5 l3 -9 l-7 -6 l9 -1 z" fill="#fff5c2" stroke="#e0a800" stroke-width="1"/>
<path d="M40 131 l3 9 l9 1 l-7 6 l3 9 l-8 -5 l-8 5 l3 -9 l-7 -6 l9 -1 z" fill="#fff5c2" stroke="#e0a800" stroke-width="1"/>
<path d="M120 211 l3 9 l9 1 l-7 6 l3 9 l-8 -5 l-8 5 l3 -9 l-7 -6 l9 -1 z" fill="#fff5c2" stroke="#e0a800" stroke-width="1"/>
<path d="M150 480 Q210 450 400 455 Q590 450 650 480 Q590 520 400 518 Q210 520 150 480 Z" fill="#9be8a8" stroke="#3d9950" stroke-width="4" stroke-linejoin="round"/>
<path d="M480 470 L530 400 L580 470 Z" fill="#e8622a" stroke="#a03f10" stroke-width="4" stroke-linejoin="round"/><g transform="translate(440,400) scale(0.95)">
<path d="M-20 66 L20 66 L14 6 L-14 6 Z" fill="#3a6b52" stroke="#20452f" stroke-width="3"/>
<path d="M-16 30 L-44 16" stroke="#e0b285" stroke-width="6" stroke-linecap="round"/>
<path d="M16 30 L38 46" stroke="#e0b285" stroke-width="6" stroke-linecap="round"/>
<circle cx="0" cy="-16" r="24" fill="#e0b285" stroke="#8a5a2a" stroke-width="3"/>
<path d="M-22 -20 q0 -20 22 -22 q22 2 22 22 q-10 -8 -22 -4 q-12 -4 -22 4 Z" fill="#3a2a1e" stroke="#221912" stroke-width="2.4"/>
<path d="M-16 -2 Q-18 20 -4 30 Q0 32 4 30 Q18 20 16 -2 Q8 8 0 4 Q-8 8 -16 -2 Z" fill="#3a2a1e" stroke="#221912" stroke-width="2.4"/>
<circle cx="-8" cy="-16" r="2.4" fill="#111"/>
<circle cx="8" cy="-16" r="2.4" fill="#111"/>
<path d="M-6 -6 Q0 -2 6 -6" stroke="#221912" stroke-width="1.6" fill="none"/>
</g><g transform="translate(485,455) scale(1.0)">
<ellipse cx="0" cy="10" rx="18" ry="10" fill="#c88a4a" stroke="#7a5225" stroke-width="2"/>
<circle cx="16" cy="4" r="7" fill="#c88a4a" stroke="#7a5225" stroke-width="2"/>
<path d="M-16 6 L-24 -2" stroke="#7a5225" stroke-width="3" stroke-linecap="round"/>
<circle cx="18" cy="2" r="1.4" fill="#111"/>
</g><g transform="translate(260,420) scale(0.85)">
<path d="M-8 96 L-18 158" stroke="#f2c48a" stroke-width="8" stroke-linecap="round"/>
<path d="M8 96 L18 158" stroke="#f2c48a" stroke-width="8" stroke-linecap="round"/>
<path d="M-24 70 L24 70 L20 100 L4 100 L0 80 L-4 100 L-20 100 Z" fill="#4a90d9" stroke="#2a5f96" stroke-width="4" stroke-linejoin="round"/>
<path d="M-26 12 Q-30 15 -30 22 L-14 35 L-14 70 L14 70 L14 35 L30 22 Q30 15 26 12 L14 8 Q0 16 -14 8 Z" fill="#5aa3e0" stroke="#2a5f96" stroke-width="4" stroke-linejoin="round"/>
<path d="M-14 25 L-50 50" stroke="#f2c48a" stroke-width="6" stroke-linecap="round"/>
<path d="M14 25 L46 18" stroke="#f2c48a" stroke-width="6" stroke-linecap="round"/>
<circle cx="0" cy="-14" r="29" fill="#f9d9ab" stroke="#c9950a" stroke-width="4"/>
<path d="M-27 -22 q5 -23 27 -23 q22 0 27 23 q-13 -10 -27 -4 q-14 -6 -27 4 Z" fill="#ffd166" stroke="#d99a1f" stroke-width="3" stroke-linejoin="round"/>
<path d="M-25 -30 q-6 -6 -2 -13" stroke="#d99a1f" stroke-width="3" fill="none" stroke-linecap="round"/>
<path d="M25 -30 q6 -6 2 -13" stroke="#d99a1f" stroke-width="3" fill="none" stroke-linecap="round"/>
<circle cx="-11" cy="-14" r="4.5" fill="#4caf50" stroke="#2e7d32" stroke-width="1"/>
<circle cx="11" cy="-14" r="4.5" fill="#4caf50" stroke="#2e7d32" stroke-width="1"/>
<circle cx="-11" cy="-14" r="1.8" fill="#111"/>
<circle cx="11" cy="-14" r="1.8" fill="#111"/>
<circle cx="-18" cy="-3" r="5.5" fill="#ff9a9a" opacity="0.6"/>
<circle cx="18" cy="-3" r="5.5" fill="#ff9a9a" opacity="0.6"/>
<path d="M-11 4 Q0 15 11 4" stroke="#a5540f" stroke-width="3" fill="none" stroke-linecap="round"/>
</g><g transform="translate(190,420) scale(0.85)">
<path d="M-28 100 L28 100 L13 10 L-13 10 Z" fill="#ff8fb1" stroke="#c94f75" stroke-width="4" stroke-linejoin="round"/>
<path d="M-13 32 L-48 14" stroke="#e6b98a" stroke-width="6" stroke-linecap="round"/>
<path d="M13 32 L46 50" stroke="#e6b98a" stroke-width="6" stroke-linecap="round"/>
<path d="M-8 100 L-17 150" stroke="#c94f75" stroke-width="6" stroke-linecap="round"/>
<path d="M8 100 L17 150" stroke="#c94f75" stroke-width="6" stroke-linecap="round"/>
<circle cx="0" cy="-12" r="27" fill="#eec89a" stroke="#c94f75" stroke-width="4"/>
<g fill="#6b4327" stroke="#4a2c17" stroke-width="2.4">
<circle cx="-22" cy="-25" r="8"/>
<circle cx="-28" cy="-11" r="8"/>
<circle cx="-28" cy="4" r="7"/>
<circle cx="-20" cy="16" r="6"/>
<circle cx="22" cy="-25" r="8"/>
<circle cx="28" cy="-11" r="8"/>
<circle cx="28" cy="4" r="7"/>
<circle cx="20" cy="16" r="6"/>
<path d="M-18 -34 q18 -12 36 0" stroke="#4a2c17" stroke-width="2.6" fill="#6b4327"/>
</g>
<circle cx="-9" cy="-12" r="4.2" fill="#000"/>
<circle cx="9" cy="-12" r="4.2" fill="#000"/>
<circle cx="-16" cy="-2" r="5.5" fill="#ff9a9a" opacity="0.6"/>
<circle cx="16" cy="-2" r="5.5" fill="#ff9a9a" opacity="0.6"/>
<path d="M-9 6 Q0 15 9 6" stroke="#a5540f" stroke-width="2.6" fill="none" stroke-linecap="round"/>
</g><g>
<path d="M188.39999999999998 265.6 Q170.39999999999998 265.6 170.39999999999998 283.6 L170.39999999999998 312.0 Q170.39999999999998 330.0 188.39999999999998 330.0 L331.6 330.0 Q349.6 330.0 349.6 312.0 L349.6 283.6 Q349.6 265.6 331.6 265.6 Z" fill="#fffaf0" stroke="#2b2320" stroke-width="2.5"/>
<path d="M266.0 326.0 L280 330 L271.0 316.0 Z" fill="#fffaf0" stroke="#2b2320" stroke-width="2.5" stroke-linejoin="round"/>
<text x="260" y="292.6" font-size="15" font-family="'Comic Sans MS','Baloo 2',cursive,sans-serif" fill="#2b2320" text-anchor="middle" font-weight="bold"><tspan x="260" dy="0">Ah mais c'est Wiwi</tspan><tspan x="260" dy="21">!</tspan></text>
</g><g>
<path d="M78.39999999999999 235.6 Q60.39999999999999 235.6 60.39999999999999 253.6 L60.39999999999999 282.0 Q60.39999999999999 300.0 78.39999999999999 300.0 L221.60000000000002 300.0 Q239.60000000000002 300.0 239.60000000000002 282.0 L239.60000000000002 253.6 Q239.60000000000002 235.6 221.60000000000002 235.6 Z" fill="#fffaf0" stroke="#2b2320" stroke-width="2.5"/>
<path d="M162.0 296.0 L190 300 L172.0 286.0 Z" fill="#fffaf0" stroke="#2b2320" stroke-width="2.5" stroke-linejoin="round"/>
<text x="150" y="262.6" font-size="15" font-family="'Comic Sans MS','Baloo 2',cursive,sans-serif" fill="#2b2320" text-anchor="middle" font-weight="bold"><tspan x="150" dy="0">Non ! Pas chez les</tspan><tspan x="150" dy="21">campistes…</tspan></text>
</g>
</svg>